<?xml version="1.0" standalone="no"?>
<!DOCTYPE svg PUBLIC "-//W3C//DTD SVG 20010904//EN"
 "http://www.w3.org/TR/2001/REC-SVG-20010904/DTD/svg10.dtd">
<svg version="1.0" xmlns="http://www.w3.org/2000/svg"
 width="700.000000pt" height="700.000000pt" viewBox="0 0 700.000000 700.000000"
 preserveAspectRatio="xMidYMid meet">
<metadata>
Created by potrace 1.11, written by Peter Selinger 2001-2013
</metadata>
<g transform="translate(0.000000,700.000000) scale(0.100000,-0.100000)"
fill="#000000" stroke="none">
<path d="M3455 6709 c-103 -14 -158 -46 -286 -170 -59 -57 -331 -319 -522
-503 -182 -174 -339 -326 -546 -525 -123 -119 -248 -238 -276 -266 -29 -27
-150 -144 -270 -260 -120 -115 -239 -230 -265 -255 -26 -25 -150 -144 -276
-266 -126 -121 -274 -264 -329 -317 -334 -321 -351 -340 -378 -417 -93 -261
141 -532 404 -470 88 21 128 46 237 152 l72 71 1 -1437 c1 -790 2 -1439 3
-1443 1 -5 5 -26 10 -48 15 -77 81 -167 161 -217 89 -55 -32 -52 2280 -53
1177 0 2166 3 2197 7 116 15 217 87 267 191 17 34 32 76 35 92 2 17 5 677 5
1469 l1 1438 68 -65 c115 -111 154 -137 241 -157 161 -38 342 61 402 220 24
65 29 175 9 235 -29 89 -47 108 -429 475 -170 163 -219 227 -263 345 -21 59
-22 70 -25 650 -6 1231 -7 1248 -23 1275 -28 46 -75 87 -118 104 -38 14 -121
16 -800 13 l-757 -2 -45 -30 c-58 -40 -84 -80 -100 -155 -16 -74 -36 -91 -80
-63 -16 10 -85 73 -152 139 -68 66 -145 138 -173 160 -81 66 -181 96 -280 83z
m1734 -859 c31 -12 64 -51 76 -89 4 -13 7 -1065 7 -2338 -1 -2216 -1 -2315
-19 -2345 -10 -17 -31 -40 -46 -52 l-28 -21 -1679 0 -1679 0 -28 21 c-15 11
-36 36 -45 55 -17 32 -18 127 -18 1559 l0 1525 92 89 c51 48 187 179 302 290
115 110 243 234 285 274 42 41 166 160 276 266 110 106 226 218 257 248 31 29
147 141 258 248 111 107 215 203 233 213 17 9 50 17 73 17 50 0 83 -23 205
-142 47 -45 181 -175 298 -288 117 -113 248 -239 291 -280 373 -360 455 -437
481 -449 26 -13 31 -13 47 2 16 16 17 59 18 541 1 287 4 539 8 560 8 43 53 93
93 102 15 3 33 7 38 8 27 7 179 -3 204 -14z"/>
</g>
</svg>
